<?xml version="1.0" encoding="UTF-8"?>
<svg xmlns="http://www.w3.org/2000/svg" viewBox="0 0 512 512" width="512" height="512"><g id="_20-recycle" data-name="20-recycle"><g id="linear_color" data-name="linear color"><path d="M428.457,460.858l-16.75-6.7A252.01,252.01,0,0,0,256,4a12,12,0,0,0,0,24c125.72,0,228,102.28,228,228a227.61,227.61,0,0,1-88,179.944V416a12,12,0,0,0-24,0v40a12,12,0,0,0,7.543,11.142l40,16C434.3,488.662,443.05,467.147,428.457,460.858Z"/><path d="M256,484C130.28,484,28,381.72,28,256A227.61,227.61,0,0,1,116,76.056V96a12,12,0,0,0,24,0V56a12,12,0,0,0-7.543-11.142l-40-16a12,12,0,0,0-8.914,22.284l16.75,6.7A252.01,252.01,0,0,0,256,508a12,12,0,0,0,0-24Z"/><path d="M124.577,236c-10.548,0-14.752-3.06-21.5-7.13-7.164-4.611-17.493.535-18.128,9.029A174.814,174.814,0,0,0,84,256a170.96,170.96,0,0,0,17.244,75.019,12.021,12.021,0,0,0,.885,1.778A172.189,172.189,0,0,0,256,428c72.081,0,133.938-44.575,159.48-107.6.1-.2.2-.4.292-.61.137-.326.25-.656.356-.987A171.108,171.108,0,0,0,428,256c0-5.311-.256-10.748-.761-16.162-.346-4.485-3.363-8.1-7.282-10.089C412.82,225.406,403.938,220,387.43,220s-25.388,5.406-32.524,9.75c-5.961,3.628-10.267,6.25-20.044,6.25s-14.084-2.622-20.045-6.25c-7.135-4.344-16.016-9.75-32.524-9.75s-25.389,5.406-32.524,9.75c-5.962,3.628-10.269,6.25-20.047,6.25s-14.084-2.622-20.045-6.25c-7.136-4.344-16.017-9.75-32.524-9.75s-25.391,5.406-32.527,9.749C138.664,233.378,134.356,236,124.577,236ZM256,404a147.957,147.957,0,0,1-122.226-64.631c10.852-1.542,17.651-5.661,23.33-9.118,5.962-3.629,10.27-6.251,20.049-6.251s14.084,2.622,20.045,6.25c7.136,4.344,16.017,9.75,32.524,9.75s25.389-5.406,32.525-9.75c5.961-3.628,10.269-6.25,20.046-6.25s14.084,2.622,20.045,6.25c7.136,4.344,16.016,9.75,32.524,9.75s25.388-5.406,32.523-9.75c5.96-3.627,10.267-6.249,20.04-6.25A148.148,148.148,0,0,1,256,404ZM177.153,244c9.777,0,14.084,2.622,20.045,6.25,7.136,4.344,16.017,9.75,32.524,9.75s25.389-5.406,32.525-9.75c5.961-3.628,10.269-6.25,20.046-6.25s14.084,2.622,20.045,6.25c7.136,4.344,16.016,9.75,32.524,9.75s25.388-5.406,32.523-9.75c5.961-3.628,10.268-6.25,20.045-6.25,7.672,0,11.976,1.613,16.354,4.062.144,2.668.216,5.323.216,7.938a147.47,147.47,0,0,1-6.9,44.695A64.6,64.6,0,0,0,387.43,300c-16.508,0-25.388,5.406-32.524,9.75-5.961,3.628-10.267,6.25-20.044,6.25s-14.084-2.622-20.045-6.25c-7.135-4.344-16.016-9.75-32.524-9.75s-25.389,5.406-32.524,9.75c-5.962,3.628-10.269,6.25-20.047,6.25s-14.084-2.622-20.045-6.25c-7.136-4.344-16.017-9.75-32.524-9.75s-25.391,5.4-32.527,9.749c-5.962,3.629-10.27,6.251-20.049,6.251-1.392,0-2.688-.07-3.936-.181a147.076,147.076,0,0,1-12.63-58.011A58.689,58.689,0,0,0,124.577,260c16.508,0,25.39-5.406,32.527-9.749C163.066,246.622,167.374,244,177.153,244Z"/><circle cx="300" cy="116" r="12"/><circle cx="228" cy="196" r="12"/><circle cx="140" cy="148" r="12"/><path d="M368,196a36,36,0,1,0-36-36A36.04,36.04,0,0,0,368,196Zm0-48a12,12,0,1,1-12,12A12.013,12.013,0,0,1,368,148Z"/><path d="M216,148a36,36,0,1,0-36-36A36.04,36.04,0,0,0,216,148Zm0-48a12,12,0,1,1-12,12A12.013,12.013,0,0,1,216,100Z"/></g></g></svg>
