<svg id="Light" enable-background="new 0 0 24 24" height="512" viewBox="0 0 24 24" width="512" xmlns="http://www.w3.org/2000/svg"><g id="XMLID_1_"><g><g><path d="m20.5 22h-18c-1.379 0-2.5-1.121-2.5-2.5v-16c0-.276.224-.5.5-.5s.5.224.5.5v16c0 .827.673 1.5 1.5 1.5h18c.275 0 .5-.225.5-.5v-4c0-.276.224-.5.5-.5s.5.224.5.5v4c0 .827-.673 1.5-1.5 1.5z"/></g><g><path d="m21.5 11c-.276 0-.5-.224-.5-.5v-4c0-.275-.225-.5-.5-.5h-18c-.675 0-1.303-.263-1.769-.741-.468-.456-.731-1.084-.731-1.759 0-1.379 1.121-2.5 2.5-2.5h15c.827 0 1.5.673 1.5 1.5v2.5h1.5c.827 0 1.5.673 1.5 1.5v4c0 .276-.224.5-.5.5zm-19-9c-.827 0-1.5.673-1.5 1.5 0 .403.156.776.438 1.052.286.292.659.448 1.062.448h15.5v-2.5c0-.275-.225-.5-.5-.5z"/></g><g><path d="m23.5 17h-5c-1.93 0-3.5-1.57-3.5-3.5 0-.934.364-1.812 1.026-2.474s1.54-1.026 2.474-1.026h5c.276 0 .5.224.5.5v6c0 .276-.224.5-.5.5zm-5-6c-.666 0-1.294.261-1.767.733s-.733 1.101-.733 1.767c0 1.379 1.121 2.5 2.5 2.5h4.5v-5z"/></g><g><path d="m18.5 15c-.827 0-1.5-.673-1.5-1.5s.673-1.5 1.5-1.5 1.5.673 1.5 1.5-.673 1.5-1.5 1.5zm0-2c-.275 0-.5.225-.5.5s.225.5.5.5.5-.225.5-.5-.225-.5-.5-.5z"/></g><g><path d="m9 15.79c-.079 0-.157-.019-.229-.056l-2.5-1.29c-.12-.062-.21-.17-.249-.3-.039-.129-.024-.27.041-.388l2.5-4.5c.178-.316.697-.316.875 0l2.5 4.5c.065.118.08.259.041.388-.039.13-.129.237-.249.3l-2.5 1.29c-.073.037-.151.056-.23.056zm-1.812-1.998 1.812.936 1.812-.936-1.812-3.263z"/></g><g><path d="m9 19c-.182 0-.349-.099-.438-.257l-2.5-4.5c-.134-.242-.047-.546.194-.681.24-.13.546-.048.681.194l2.063 3.715 2.062-3.714c.135-.242.439-.325.681-.194.241.135.328.438.194.681l-2.5 4.5c-.088.157-.255.256-.437.256z"/></g></g></g></svg>