<svg height="472pt" viewBox="0 -54 472.00006 472" width="472pt" xmlns="http://www.w3.org/2000/svg"><path d="m46.445312 357.265625c5.796876 2.429687 11.859376 4.171875 18.058594 5.199219l.152344.035156c.148438.023438.292969.03125.441406.054688 4.199219.710937 8.453125 1.085937 12.714844 1.121093 7.535156-.039062 15.027344-1.164062 22.242188-3.335937.105468-.03125.210937-.039063.3125-.066406.4375-.132813.839843-.320313 1.273437-.457032 2.28125-.726562 4.554687-1.480468 6.769531-2.417968 2.734375-1.113282 5.398438-2.394532 7.972656-3.832032l43.617188-20.84375v3.308594c0 4.417969 3.582031 8 8 8h136c4.417969 0 8-3.582031 8-8v-3.3125l15.609375 7.449219.046875.035156 27.75 13.261719c.757812.410156 1.515625.769531 2.28125 1.121094l1.03125.492187.023438.003906.007812.007813c.230469.113281.472656.1875.703125.300781 2.480469 1.226563 5.027344 2.324219 7.621094 3.289063.1875.070312.378906.121093.566406.1875 8.546875 3.117187 17.566406 4.734374 26.664063 4.789062 10.738281-.015625 21.367187-2.1875 31.25-6.390625 1.367187-.578125 2.632812-1.300781 3.957031-1.945313.113281-.058593.238281-.097656.355469-.152343l.132812-.089844c20.679688-10.167969 35.910156-28.828125 41.734375-51.125.179687-.664063.265625-1.351563.265625-2.035156v-123.773438c0-.6875-.085938-1.371093-.265625-2.035156-6.058594-23.113281-22.148437-42.296875-43.851563-52.289063-21.703124-9.988281-46.742187-9.730468-68.238281.703126-1.773437-20.59375-18.972656-36.429688-39.644531-36.492188h-104c-13.253906 0-24-10.746094-24-24 0-13.257812 10.746094-24 24-24h87.132812c7.25 0 14.367188-1.972656 20.585938-5.699219l32.398438-19.441406c2.472656-1.460937 3.972656-4.136719 3.929687-7.007813-.039063-2.871093-1.617187-5.5-4.132813-6.886718-2.515624-1.386719-5.578124-1.320313-8.03125.175781l-32.398437 19.441406c-3.730469 2.234375-8 3.417969-12.351563 3.417969h-87.132812c-22.089844 0-40 17.90625-40 40 0 22.089844 17.910156 40 40 40h104c13.25.011719 23.984375 10.75 24 24v4.015625l-32 15.289063v-3.304688c0-4.421875-3.582031-8.003906-8-8h-136c-4.417969-.003906-8 3.578125-8 8v3.3125l-15.609375-7.453125-.046875-.03125-27.75-13.261719c-.757812-.410156-1.515625-.769531-2.28125-1.121094l-1.03125-.492187-.03125-.011719-.085938-.039062c-2.667968-1.332032-5.410156-2.515625-8.207031-3.542969l-.390625-.136719c-2.683594-.972656-5.414062-1.796875-8.183594-2.472656-.222656-.054688-.449218-.105469-.671874-.15625-2.730469-.644531-5.492188-1.140625-8.273438-1.488281l-.550781-.0625c-2.878907-.339844-5.773438-.519531-8.671875-.539063l-.097656-.003906-.101563.003906c-9.296875-.03125-18.523437 1.566406-27.269531 4.71875l-.109375.039063c-1.394531.503906-2.8125.917969-4.191407 1.503906-1.371093.578125-2.644531 1.300781-3.96875 1.949219-.113281.054687-.230468.089844-.34375.148437l-.132812.085938c-20.679688 10.167969-35.910156 28.832031-41.734375 51.128906-.1796875.664063-.265625 1.347656-.265625 2.035156v123.773438c0 .683593.0859375 1.371093.265625 2.035156 6.230469 24.003906 23.308594 43.722656 46.179687 53.3125zm46.597657-222.808594c.277343.070313.554687.121094.828125.195313 2.5625.679687 5.074218 1.515625 7.53125 2.503906l-11.003906 209.113281c-.125.023438-.246094.0625-.371094.085938-2.4375.488281-4.90625.835937-7.386719 1.03125l-.265625.03125c-2.667969.199219-5.347656.226562-8.015625.082031l11.285156-214.441406.410157.046875c2.355468.316406 4.6875.769531 6.988281 1.351562zm39.574219 17.535157-9.507813 180.625-14.101563 6.757812c-.742187.417969-1.523437.730469-2.277343 1.117188l10.308593-195.945313 10.867188 5.191406zm-79.203126-14.648438c5.191407-2.125 10.636719-3.566406 16.199219-4.289062l-11.132812 211.546874c-2.640625-.839843-5.222657-1.851562-7.738281-3.019531-.257813-.121093-.507813-.257812-.769532-.378906-2.292968-1.097656-4.519531-2.328125-6.664062-3.6875l-.410156-.261719zm285.96875 190.726562 9.507813-180.625 14.101563-6.757812c.742187-.417969 1.523437-.730469 2.277343-1.117188l-10.308593 195.941407-10.867188-5.191407zm39.640626 17.542969c-.308594-.078125-.617188-.132812-.925782-.214843-2.546875-.675782-5.050781-1.511719-7.5-2.496094l11.003906-209.101563c.160157-.035156.320313-.078125.480469-.113281 2.257813-.441406 4.535157-.761719 6.824219-.953125.28125-.027344.558594-.078125.839844-.097656 2.625-.195313 5.265625-.21875 7.894531-.074219l-11.285156 214.4375-.441407-.050781c-2.320312-.316407-4.621093-.761719-6.890624-1.335938zm39.5625-2.894531c-5.191407 2.121094-10.636719 3.5625-16.203126 4.285156l11.136719-211.546875c2.640625.84375 5.222657 1.851563 7.738281 3.023438.257813.117187.507813.253906.769532.375 2.292968 1.097656 4.519531 2.332031 6.664062 3.691406l.410156.257813zm37.414062-163.507812v121.640624c-3.503906 12.558594-10.789062 23.734376-20.867188 32.003907l9.269532-176.222657c5.335937 6.671876 9.28125 14.351563 11.597656 22.578126zm-123.550781-23.917969-8.703125 165.304687-11.746094-5.609375v-149.914062zm-156.449219-3.261719h16v24c0 4.417969 3.582031 8 8 8s8-3.582031 8-8v-24h56v24c0 4.417969 3.582031 8 8 8s8-3.582031 8-8v-24h16v176h-16v-120c0-4.417969-3.582031-8-8-8s-8 3.582031-8 8v120h-56v-120c0-4.417969-3.582031-8-8-8s-8 3.582031-8 8v120h-16zm-16 162.957031-20.449219 9.777344 8.703125-165.304687 11.746094 5.613281zm-144-135.777343c3.503906-12.558594 10.789062-23.734376 20.867188-32.007813l-9.269532 176.222656c-5.335937-6.671875-9.28125-14.351562-11.597656-22.574219zm0 0"/></svg>